PathFileType	4	(X/Y/Z)	Patient4_TMGait_0pt5_01_right_34.trc.trc
DataRate	CameraRate	NumFrames	NumMarkers	Units	OrigDataRate	OrigDataStartFrame	OrigNumFrames
75.675675675676	75.675675675676	4	33	mm	75.675675675676	36	       141
Frame#	Time	L.ASIS			Sacral			L.Shoulder			Chest			R.Shoulder			Neck			R.ASIS			R.Thigh.Superior			R.Thigh.Lateral			R.Thigh.Inferior			R.Patella			L.Thigh.Superior			L.Thigh.Lateral			L.Thigh.Inferior			L.Patella			L.Shank.Superior			L.Shank.Lateral			L.Shank.Inferior			R.Shank.Superior			R.Shank.Lateral			R.Shank.Inferior			R.Heel			R.Midfoot.Superior			R.Midfoot.Lateral			R.Toe			L.Heel			L.Midfoot.Lateral			L.Midfoot.Superior			L.Toe			L.Elbow			L.Wrist			R.Elbow			R.Wrist			
		X1	Y1	Z1	X2	Y2	Z2	X3	Y3	Z3	X4	Y4	Z4	X5	Y5	Z5	X6	Y6	Z6	X7	Y7	Z7	X8	Y8	Z8	X9	Y9	Z9	X10	Y10	Z10	X11	Y11	Z11	X12	Y12	Z12	X13	Y13	Z13	X14	Y14	Z14	X15	Y15	Z15	X16	Y16	Z16	X17	Y17	Z17	X18	Y18	Z18	X19	Y19	Z19	X20	Y20	Z20	X21	Y21	Z21	X22	Y22	Z22	X23	Y23	Z23	X24	Y24	Z24	X25	Y25	Z25	X26	Y26	Z26	X27	Y27	Z27	X28	Y28	Z28	X29	Y29	Z29	X30	Y30	Z30	X31	Y31	Z31	X32	Y32	Z32	X33	Y33	Z33	

36	45.082500000000	858.976251848870	954.982631176008	362.372837598475	643.327582223476	1006.556520428508	514.315350654496	845.907163372058	1429.858625463056	348.035534324984	938.707145360422	1349.183071241559	511.260413649866	853.603108974324	1425.160734811892	684.530961575853	850.688460962904	1488.360846082918	499.602506286916	865.122807961122	932.941416372845	636.711867396998	925.970347462870	744.774039202817	609.337494958736	855.334774429389	632.361946154024	663.096864421368	940.499626617334	588.971849837274	584.766392850261	951.012883750492	500.090198278751	590.722632252380	914.085392089141	749.576632167313	393.499139676994	845.516592762942	629.185146317667	322.473686634114	934.295369927774	551.610995000224	386.279111536965	932.558357436960	463.284514050233	384.614670293856	865.312808529658	402.389534372465	375.289857277918	728.152832497272	357.958909826438	319.016088766344	711.642354078229	231.747620215160	377.060921086834	928.055214333244	409.256956874520	597.312277925024	861.608281980796	300.323679945010	654.667381452146	913.095291865109	209.470061471863	593.698466917921	787.648628968867	42.716025543931	555.501440967638	957.182941008991	98.305221251799	598.527763216357	868.230524278910	36.241734392847	634.107967921353	1076.177594565011	47.923484377181	630.341164355860	517.622167430111	158.560957579812	405.649737941137	580.952035816510	128.230145143470	322.464617926413	684.635189679181	138.710206964757	348.727353518464	769.839354842936	38.879414790552	309.021547766448	779.070568555717	1082.409027122954	228.470825025824	940.707637254261	875.370962962835	225.053446957040	759.436529338151	1088.621874105301	791.484728660097	792.721131377284	829.770013201906	802.653931874041	
37	45.095714285714	857.748976566086	956.016485561531	364.821508629788	642.714642706713	1007.940211012529	517.311706946566	844.960499578568	1430.967755703801	350.142216128725	938.408932035053	1350.122179957681	512.877410989635	854.363977217928	1426.280857023331	686.728438374910	850.453784008956	1489.447146931181	501.707340285835	864.532117267267	934.060825031552	639.043194415193	923.210810249553	744.371391984982	611.673532468932	851.304048404058	632.544659327652	665.035079219717	935.818411968791	588.456853883689	586.364432090530	945.369059615387	499.684759826188	592.029740862383	916.623083856210	753.639529883060	396.321176440786	851.641163644110	632.033965005191	324.257409494575	942.336065503490	556.337390853724	388.067505450296	942.330263450545	467.450196095518	386.034548072813	874.935178987597	405.829001358417	376.458834985878	737.205544526799	362.552811123263	320.341798452208	720.217447827872	236.005852494737	377.699448235573	922.156268835281	409.115917498585	598.513136232172	855.385997111602	300.239642980012	655.457485300016	906.744964790600	209.431679583475	594.277315297580	781.180794359805	42.642003378338	555.625635892148	950.665834469922	98.310021048975	598.750771488446	861.766433345135	36.182646829145	634.239098769811	1069.681817465773	48.090487836011	630.512352280508	525.603131995135	164.330606146113	406.341988022805	588.479646623470	133.952992439941	322.748997488588	692.572993014292	142.749337319314	348.968174772029	776.469079964732	41.048234397159	308.122470741489	776.278213734949	1083.814993525365	230.802381750548	935.772514118142	875.053215970730	227.218478150537	766.931068395126	1087.653268760158	794.566060787998	810.205150325439	830.072037530566	803.470743251199	
38	45.108928571429	856.516555861491	957.019478842600	367.284365358942	641.940390642962	1009.235645721972	520.104435578072	843.922828678574	1431.870955569296	352.068594933928	938.025068502145	1350.941310987031	514.346784379750	855.039921358485	1427.379330321100	688.704346653115	850.128274804479	1490.418553647915	503.585866746028	863.775211034308	935.006607162305	641.387778461477	920.401419681876	743.946424427169	613.918559216298	847.216641542190	632.646453101532	666.872265789678	931.161926927595	587.912960417055	587.931685851755	939.735269714319	499.255571141481	593.292524505484	918.752209449325	757.591100382748	399.100212906075	857.142046060438	635.080466893504	325.885139688625	949.420022970885	561.148932712180	389.830003474482	951.216961489440	471.921202688222	387.391284986619	884.156373711049	409.413403918635	377.420843256827	746.356244957021	366.165983569588	321.268001425825	729.844452080927	239.175650202180	377.946594754075	916.301347810776	408.947231473116	599.638701371306	849.204449253834	300.141588848303	656.195579002573	900.434456698659	209.368059385303	594.803906280776	774.694224225457	42.600386882896	555.712430356652	944.157199040662	98.259696150748	598.947060683412	855.281746872898	36.134564646308	634.342888460981	1063.184905455758	48.117111874716	630.675294384837	535.397660705418	167.153771501222	406.436093392980	598.182674365791	137.339226231604	322.545663020526	702.397354883244	145.686483582400	348.797948414353	786.119961751677	43.326040934122	307.027075764325	773.273176374201	1085.055445653219	232.906107669151	930.510175186195	874.547532178671	228.780016132105	774.759194423119	1086.806978205665	797.577802991469	828.163727550705	830.958758462068	804.187244080207	
39	45.122142857143	855.266025936947	958.002604508917	369.716765249999	641.008257388038	1010.417492581392	522.702772445380	842.793504796027	1432.572335741399	353.848586034581	937.554815614447	1351.631326629670	515.704136346256	855.626527830281	1428.432449310276	690.478417241901	849.729434443004	1491.264116477096	505.275286586461	862.888477350744	935.775211139727	643.718330486065	917.616713877052	743.513801589648	616.041476340633	843.174677321981	632.682469996030	668.589671346146	926.627455929278	587.355569987717	589.446205093159	934.226833769935	498.804881578309	594.492783533150	920.464927355900	761.377467023740	401.804154626486	862.021547756154	638.236918059448	327.361650461147	955.551417622248	565.927598642967	391.559689687133	959.195963169667	476.585198315847	388.659430026137	892.953236289110	413.045194994122	378.170314887028	755.593527232756	368.677829915197	321.780976715404	740.546796723539	241.151375530111	377.800267766100	910.582429319488	408.748576696565	600.672695166451	843.133075115588	300.040704476516	656.878123464340	894.195147459305	209.275046626081	595.267474381125	768.169342448382	42.592371152429	555.766347116085	937.644324970527	98.165260166044	599.109151015523	848.760106405792	36.103676350575	634.420662324038	1056.674483508777	48.003130668061	630.826538564832	547.026091024696	166.961346158483	405.912459247061	610.072604159402	138.277066699676	321.845359801973	714.146589310759	147.372498627585	348.218723916973	798.794115141794	45.539921583731	305.779877676126	770.098527527383	1086.110984917734	234.864566932621	924.894874949538	873.788195625878	229.762347866787	782.913084491420	1086.075401154791	800.486003481354	846.506453956949	832.443773299961	804.764843820896	
